#N canvas 555 50 882 643 10;
#X obj 43 91 hsl 128 25 1000 8000 0 0 empty empty empty -2 -8 0 10
-204800 -1 -1 5400 1;
#X obj 40 150 send LPFdamping;
#X floatatom 40 128 12 0 0 0 - - -, f 12;
#X obj 42 189 hsl 128 20 0.94 0.999 0 0 empty energyLossR empty -2
-8 0 10 -260097 -1 -1 8610 1;
#X floatatom 39 215 10 0 0 0 - - -, f 10;
#X obj 39 234 send energyLoss;
#X obj 89 293 catch~ ksout;
#X obj 140 516 tgl 15 0 empty empty empty 17 7 0 10 -262144 -1 -1 0
1;
#X obj 95 568 dac~;
#X obj 448 55 bng 15 250 50 0 empty empty empty 17 7 0 10 -262144 -1
-1;
#X obj 92 382 delread4~ echo;
#X obj 88 324 delwrite~ echo 1000;
#X obj 280 364 line~;
#X obj 46 421 +~;
#X obj 281 303 hsl 128 15 5 300 0 0 empty DelayTime VariDelay -2 -8
1 14 -203904 -159808 -1 8395 1;
#X obj 138 350 *~ 0.7;
#X msg 280 337 \$1 100;
#X obj 136 433 hsl 128 15 0 0.5 0 0 empty empty Output_Gain -2 -8 1
14 -257985 -260097 -1 2300 1;
#X obj 133 484 line~;
#X obj 95 508 *~;
#X msg 132 461 \$1 10;
#N canvas 986 169 516 471 ksVoiceLive 0;
#X obj 140 73 mtof;
#X obj 140 120 expr 1000/$f1;
#X floatatom 150 143 5 0 0 0 - - -, f 5;
#X floatatom 150 98 5 0 0 0 - - -, f 5;
#X obj 152 291 receive energyLoss;
#X obj 185 233 receive LPFdamping;
#X obj 140 47 inlet;
#X obj 15 259 throw~ ksout;
#X obj 125 201 +~;
#X obj 125 344 *~;
#X obj 152 315 * -1;
#X obj 58 44 inlet~;
#X text 139 25 MIDI NOTE INPUT;
#X text 57 24 NOISE INPUT;
#X obj 141 165 delread~ delay1;
#X obj 125 374 delwrite~ delay1 200;
#X obj 125 260 lop~ 1200;
#X connect 0 0 1 0;
#X connect 0 0 3 0;
#X connect 1 0 2 0;
#X connect 1 0 14 0;
#X connect 4 0 10 0;
#X connect 5 0 16 1;
#X connect 6 0 0 0;
#X connect 8 0 7 0;
#X connect 8 0 16 0;
#X connect 9 0 15 0;
#X connect 10 0 9 1;
#X connect 11 0 8 0;
#X connect 14 0 8 1;
#X connect 16 0 9 0;
#X restore 217 224 pd ksVoiceLive;
#X obj 241 44 tgl 15 0 empty empty Mute 17 7 0 10 -262144 -1 -1 1 1
;
#X obj 217 141 softmute;
#X obj 95 539 softmute;
#X obj 217 101 adc~;
#X obj 217 192 +~;
#X obj 296 48 hsl 128 15 0 0.7 0 0 empty empty Input_Gain -2 -8 1 14
-261234 -258113 -1 1900 1;
#X obj 292 157 line~;
#X msg 293 136 \$1 10;
#N canvas 309 82 516 471 ksVoiceLive2 0;
#X obj 140 73 mtof;
#X obj 140 120 expr 1000/$f1;
#X floatatom 150 143 5 0 0 0 - - -, f 5;
#X floatatom 150 98 5 0 0 0 - - -, f 5;
#X obj 152 291 receive energyLoss;
#X obj 185 232 receive LPFdamping;
#X obj 140 47 inlet;
#X obj 39 257 throw~ ksout;
#X obj 125 201 +~;
#X obj 125 344 *~;
#X obj 152 315 * -1;
#X obj 58 44 inlet~;
#X text 139 25 MIDI NOTE INPUT;
#X text 57 24 NOISE INPUT;
#X obj 140 165 delread~ delay2;
#X obj 125 374 delwrite~ delay2 200;
#X obj 125 257 lop~ 1200;
#X connect 0 0 1 0;
#X connect 0 0 3 0;
#X connect 1 0 2 0;
#X connect 1 0 14 0;
#X connect 4 0 10 0;
#X connect 5 0 16 1;
#X connect 6 0 0 0;
#X connect 8 0 7 0;
#X connect 8 0 16 0;
#X connect 9 0 15 0;
#X connect 10 0 9 1;
#X connect 11 0 8 0;
#X connect 14 0 8 1;
#X connect 16 0 9 0;
#X restore 329 223 pd ksVoiceLive2;
#X obj 448 31 loadbang;
#X obj 340 186 unpack f f;
#X msg 445 75 62 45;
#X msg 473 98 62 57;
#X msg 498 127 74 57;
#X floatatom 377 332 5 0 0 0 - - -, f 5;
#X msg 538 51 \; DelayTime 248 \; energyLossR 0.98;
#X obj 610 504 line;
#X obj 646 328 delay;
#X obj 643 238 t b b;
#X obj 614 361 f;
#X obj 666 361 + 1;
#X obj 615 387 mod 2;
#X obj 615 413 sel 0 1;
#X obj 639 185 bng 15 250 50 0 empty empty empty 17 7 0 10 -262144
-1 -1;
#X obj 677 296 * 2000;
#X obj 674 270 random 5;
#X obj 609 533 s DelayTime;
#X msg 601 445 300 2500;
#X obj 704 203 spigot;
#X obj 746 182 tgl 15 0 empty empty empty 17 7 0 10 -262144 -1 -1 0
1;
#X msg 621 478 200 1000;
#X text 620 168 Start;
#X text 740 222 Enable;
#X connect 0 0 2 0;
#X connect 2 0 1 0;
#X connect 3 0 4 0;
#X connect 4 0 5 0;
#X connect 6 0 11 0;
#X connect 6 0 13 0;
#X connect 7 0 24 1;
#X connect 9 0 33 0;
#X connect 10 0 13 1;
#X connect 10 0 15 0;
#X connect 12 0 10 0;
#X connect 13 0 19 0;
#X connect 14 0 16 0;
#X connect 14 0 36 0;
#X connect 15 0 11 0;
#X connect 16 0 12 0;
#X connect 17 0 20 0;
#X connect 18 0 19 1;
#X connect 19 0 24 0;
#X connect 20 0 18 0;
#X connect 22 0 23 1;
#X connect 23 0 26 0;
#X connect 24 0 8 0;
#X connect 24 0 8 1;
#X connect 25 0 23 0;
#X connect 25 1 23 0;
#X connect 26 0 21 0;
#X connect 26 0 30 0;
#X connect 27 0 29 0;
#X connect 28 0 26 1;
#X connect 29 0 28 0;
#X connect 31 0 9 0;
#X connect 31 0 37 0;
#X connect 32 0 21 1;
#X connect 32 1 30 1;
#X connect 33 0 32 0;
#X connect 34 0 32 0;
#X connect 35 0 32 0;
#X connect 38 0 48 0;
#X connect 39 0 50 0;
#X connect 40 0 39 0;
#X connect 40 0 41 0;
#X connect 40 1 47 0;
#X connect 41 0 42 0;
#X connect 41 0 43 0;
#X connect 42 0 41 1;
#X connect 43 0 44 0;
#X connect 44 0 49 0;
#X connect 44 1 52 0;
#X connect 45 0 40 0;
#X connect 46 0 39 1;
#X connect 47 0 46 0;
#X connect 49 0 38 0;
#X connect 50 0 40 0;
#X connect 51 0 50 1;
#X connect 52 0 38 0;
